<svg width="138" height="24" fill="none" xmlns="http://www.w3.org/2000/svg">
  <path d="M105.2 5.3h-4c-.1 0-.3.2-.3.4V8c0 .2.2.4.4.4h4.6c2 0 3 .5 3 1.8 0 .3-.1.6-.3.7-.2.2-.5.3-.8.3h-2.9a7 7 0 0 0-4.2 1.2 4 4 0 0 0-1.6 3.3c0 .8.3 1.5.7 2.2.4.6 1 1.1 1.8 1.5a7.6 7.6 0 0 0 5.7-.1l1.2-1c.1-.2.4-.1.4 0v1c0 .2.2.4.4.4h3c.2 0 .3-.2.3-.4v-8c0-4.5-3.1-5.9-7.4-5.9Zm2.7 11a4 4 0 0 1-2.7 1c-.8 0-1.3-.2-1.8-.6-.4-.3-.6-.7-.6-1.3 0-.6.2-1.1.7-1.5a3 3 0 0 1 2-.5h3c.2 0 .4.1.4.3 0 1-.4 1.9-1 2.5ZM81.9 0H85c.3 0 .5.2.5.4v2.2c0 .2-.2.3-.5.3h-3.2c-.2 0-.4-.1-.4-.3V.4c0-.2.2-.4.4-.4Zm1.3 5.3a2 2 0 0 1 2.1 2v12c0 .1-.2.3-.4.3h-3a.4.4 0 0 1-.4-.4v-10c0-.5-.4-1-1-1h-4.8c-.2 0-.4.2-.4.4v10.6c0 .2-.2.4-.4.4h-3a.4.4 0 0 1-.4-.4V4.8c0-1 .2-1.8.7-2.5.4-.7 1-1.3 2-1.7C75 .2 75.8 0 77 0h2.4c.2 0 .4.2.4.4v2.2c0 .2-.2.3-.4.3h-2c-.6 0-1.2.2-1.5.6a2 2 0 0 0-.6 1.5c0 .2.2.3.4.3h7.5ZM88.1 0H91c.2 0 .4.2.4.4v18.8c0 .2-.2.4-.4.4h-3a.4.4 0 0 1-.4-.4V.4c0-.2.2-.4.5-.4Zm9.7.4v2.2c0 .2-.2.3-.4.3h-3.2c-.2 0-.4-.1-.4-.3V.4c0-.2.2-.4.4-.4h3.2c.2 0 .4.2.4.4Zm-3.5 5h3c.2 0 .4.1.4.3v13.5c0 .2-.2.4-.4.4h-3a.4.4 0 0 1-.4-.4V5.7c0-.2.2-.4.4-.4ZM0 17c0-.2.2-.4.4-.4h6c1 0 1.9-.1 1.9-1 0-2.2-8.3-1.4-8.3-6.4C0 6 2.8 5.3 5.9 5.3h5.3c.2 0 .4.2.4.4V8c0 .2-.2.3-.4.3h-6c-.8 0-1.3.3-1.3.8 0 2 8.2 1.5 8.2 6.4 0 3-2.7 4.1-6 4.1H.4a.4.4 0 0 1-.4-.4V17ZM114.8 1.8h3c.2 0 .4.2.4.4V5c0 .2.2.3.4.3h3.8c.2 0 .4.2.4.4V8c0 .2-.2.4-.4.4h-3.8c-.2 0-.4.1-.4.3v10.6c0 .2-.2.4-.4.4h-3a.4.4 0 0 1-.4-.4v-17c0-.2.2-.4.4-.4Zm15.3 3.3c-4.2 0-7.6 3.1-7.6 7v.5c0 3.9 3.1 7 8.7 7h2c.2 0 .4-.2.4-.4v-2.1c0-.2-.2-.4-.4-.4h-1c-3.3 0-5.4-1.1-5.9-3.2 0-.1 0-.2.2-.2h10.7c.3 0 .4-.2.4-.4V12c0-3.9-3.3-7-7.5-7Zm0 2.9c2 0 3.2 1.2 3.7 2.7 0 .2 0 .3-.2.3h-7c-.1 0-.2-.1-.2-.3a3.9 3.9 0 0 1 3.7-2.7ZM52.7 5.1c-4.2 0-7.6 3.1-7.6 7v.5c0 3.9 3 7 8.6 7H57c.2 0 .4-.2.4-.4v-2.1c0-.2-.2-.4-.4-.4h-2.2c-3.3 0-5.5-1.1-6-3.2l.3-.2h10.7c.2 0 .4-.2.4-.4V12c0-3.9-3.4-7-7.5-7Zm0 2.9c2 0 3.2 1.2 3.7 2.7 0 .2 0 .3-.2.3h-7c-.1 0-.2-.1-.2-.3A3.9 3.9 0 0 1 52.7 8Zm17.6-2.3V8c0 .2-.2.4-.4.4h-1.4c-2.6 0-3.4 2-3.4 4.3v6.6c0 .2-.2.4-.4.4h-3a.4.4 0 0 1-.4-.4v-5.9c0-5.2 2.3-8 7.8-8h.8c.2 0 .4.2.4.4Zm-46-.4h3c.1 0 .3.2.3.4v7.5c0 3.7-3.2 6.6-7.1 6.6-4 0-7.1-3-7.1-6.6V5.7c0-.2.1-.4.4-.4h2.9c.2 0 .4.2.4.4v7.5c0 1.8 1.6 3.2 3.6 3.1 1.8 0 3.2-1.5 3.2-3.2V5.7c0-.2.2-.4.4-.4Zm12.4-.2A8 8 0 0 0 33 6c-.2 0-.3 0-.3-.2 0-.3-.2-.5-.4-.5h-3c-.2 0-.4.2-.4.4v18c0 .1.2.3.4.3h3c.2 0 .4-.2.4-.4v-4.5c0-.1.1-.2.3-.2a8 8 0 0 0 3.7 1c4.3 0 7.7-3.4 7.7-7.4S41 5 36.7 5Zm-.1 11.7c-2.3 0-4.2-1.5-4.2-4.3C32.4 10 34 8 36.6 8s4 2 4 4.4c0 2.9-1.8 4.3-4 4.3Zm99.9 1c0 .1-.1.2-.4.2h-.2v-.4h.2c.3 0 .4 0 .4.2Zm-.3-1.3c-1 0-1.7.8-1.7 1.7 0 .9.7 1.6 1.7 1.6s1.8-.7 1.8-1.6c0-1-.8-1.7-1.8-1.7Zm.7 2.6h-.4l-.5-.8h-.1v.7l-.1.1h-.3v-2h.7c.5 0 .8.2.8.5s-.2.5-.4.6c-.1 0-.1 0 0 0l.4.7v.1Z" fill="#fff"/>
</svg>
