<svg width="18" height="20" fill="none" xmlns="http://www.w3.org/2000/svg">
  <g clip-path="url(#a)" fill="#fff">
    <path d="m12 2.4-.6.2c0-.3-.2-.5-.3-.8-.4-.8-1-1.2-1.8-1.2h-.1C8.7.1 8.3 0 7.8 0c-1 0-2 .8-2.7 2-.6.9-1 2-1.1 2.8a53 53 0 0 0-1.9.6c-.6.2-.6.2-.6.7L0 18l12.1 2V2.4H12Zm-2.8.8-2 .7a5 5 0 0 1 1-2l.7-.6c.2.6.3 1.4.3 2ZM7.9.7l.6.1a3 3 0 0 0-.8.6c-.6.7-1 1.7-1.3 2.7l-1.6.5C5 3 6.4.7 7.8.6ZM6 9.5c0 1 2.8 1.3 3 3.7 0 2-1 3.2-2.7 3.3-2 .1-3-1-3-1l.4-1.8s1 .8 2 .8c.5 0 .7-.5.7-.8 0-1.4-2.3-1.3-2.4-3.5-.2-1.9 1-3.8 3.7-4 1 0 1.6.3 1.6.3l-.6 2.3s-.7-.4-1.5-.3C6 8.5 6 9.3 6 9.5Zm3.8-6.4c0-.5 0-1.2-.3-1.8.8.1 1.1 1 1.3 1.5l-1 .3Zm2.7 16.8 5-1.2-2-14.8-.3-.2h-1.5l-1.2-1.2V20Z"/>
  </g>
  <defs>
    <clipPath id="a">
      <path fill="#fff" d="M0 0h17.6v20H0z"/>
    </clipPath>
  </defs>
</svg>
